<svg xmlns="http://www.w3.org/2000/svg">
	<symbol id="floppy">
		<g fill="currentColor"><path d="M0 0h1.615385v1.615385H0z"/><path d="M0 1.615234h1.615385v1.615385H0z"/><path d="M0 3.230469h1.615385v1.615385H0z"/><path d="M0 4.845703h1.615385v1.615385H0zM0 6.461914h1.615385v1.615385H0z"/><path d="M0 8.077148h1.615385v1.615385H0z"/><path d="M0 9.692383h1.615385v1.615385H0z"/><path d="M0 11.307617h1.615385v1.615385H0z"/><path d="M0 12.922852h1.615385v1.615385H0z"/><path d="M0 14.538086h1.615385v1.615385H0zM0 16.154297h1.615385v1.615385H0z"/><path d="M0 17.769531h1.615385v1.615385H0z"/><path d="M0 19.384766h1.615385v1.615385H0zM17.7693 0l-7e-8 1.615385-1.615385-7e-8 7e-8-1.615385zM16.1538 0l-7e-8 1.615385-1.615385-7e-8 7e-8-1.615385z"/><path d="m14.5385 0-7e-8 1.615385-1.615385-7e-8 7e-8-1.615385zM12.9231 0l-7e-8 1.615385-1.615385-7e-8 7e-8-1.615385zM11.3076 0l-7e-8 1.615385-1.615385-7e-8 7e-8-1.615385z"/><path d="m9.69238 0-7e-8 1.615385-1.615385-7e-8 7e-8-1.615385zM8.0769 0l-7e-8 1.615385-1.615385-7e-8 7e-8-1.615385z"/><path d="m6.46155 0-7e-8 1.615385-1.615385-7e-8 7e-8-1.615385z"/><path d="m4.84619 0-7e-8 1.615385-1.615385-7e-8 7e-8-1.615385zM3.23071 0l-7e-8 1.615385-1.615385-7e-8 7e-8-1.615385zM19.3846 1.61523l-7e-8 1.615385-1.615385-7e-8 7e-8-1.615385zM4.84619 3.23047l-7e-8 1.615385-1.615385-7e-8 7e-8-1.615385z"/><path d="m4.84619 1.61523-7e-8 1.615385-1.615385-7e-8 7e-8-1.615385zM4.84619 4.8457l-7e-8 1.615385-1.615385-7e-8 7e-8-1.615385zM16.1538 3.23047l-7e-8 1.615385-1.615385-7e-8 7e-8-1.615385z"/><path d="m16.1538 1.61523-7e-8 1.615385-1.615385-7e-8 7e-8-1.615385zM16.1538 4.8457l-7e-8 1.615385-1.615385-7e-8 7e-8-1.615385zM12.9231 3.23047l-7e-8 1.615385-1.615385-7e-8 7e-8-1.615385z"/><path d="m12.9231 1.61523-7e-8 1.615385-1.615385-7e-8 7e-8-1.615385zM12.9231 4.8457l-7e-8 1.615385-1.615385-7e-8 7e-8-1.615385zM16.1538 6.46191l-7e-8 1.615385-1.615385-7e-8 7e-8-1.615385z"/><path d="m14.5385 6.46191-7e-8 1.615385-1.615385-7e-8 7e-8-1.615385zM12.9231 6.46191l-7e-8 1.615385-1.615385-7e-8 7e-8-1.615385zM11.3076 6.46191l-7e-8 1.615385-1.615385-7e-8 7e-8-1.615385z"/><path d="m9.69238 6.46191-7e-8 1.615385-1.615385-7e-8 7e-8-1.615385zM8.0769 6.46191l-7e-8 1.615385-1.615385-7e-8 7e-8-1.615385z"/><path d="m6.46155 6.46191-7e-8 1.615385-1.615385-7e-8 7e-8-1.615385z"/><path d="m4.84619 6.46191-7e-8 1.615385-1.615385-7e-8 7e-8-1.615385zM17.7693 11.3076l-7e-8 1.615385-1.615385-7e-8 7e-8-1.615385zM16.1538 11.3076l-7e-8 1.615385-1.615385-7e-8 7e-8-1.615385z"/><path d="m14.5385 11.3076-7e-8 1.615385-1.615385-7e-8 7e-8-1.615385zM12.9231 11.3076l-7e-8 1.615385-1.615385-7e-8 7e-8-1.615385zM11.3076 11.3076l-7e-8 1.615385-1.615385-7e-8 7e-8-1.615385z"/><path d="m9.69238 11.3076-7e-8 1.615385-1.615385-7e-8 7e-8-1.615385zM8.0769 11.3076l-7e-8 1.615385-1.615385-7e-8 7e-8-1.615385z"/><path d="m6.46155 11.3076-7e-8 1.615385-1.615385-7e-8 7e-8-1.615385z"/><path d="m4.84619 11.3076-7e-8 1.615385-1.615385-7e-8 7e-8-1.615385zM17.7693 12.9229l-7e-8 1.615385-1.615385-7e-8 7e-8-1.615385z"/><path d="m4.84619 12.9229-7e-8 1.615385-1.615385-7e-8 7e-8-1.615385zM17.7693 14.5381l-7e-8 1.615385-1.615385-7e-8 7e-8-1.615385z"/><path d="m4.84619 14.5381-7e-8 1.615385-1.615385-7e-8 7e-8-1.615385zM17.7693 16.1543l-7e-8 1.615385-1.615385-7e-8 7e-8-1.615385zM4.84619 16.1543l-7e-8 1.615385-1.615385-7e-8 7e-8-1.615385z"/><path d="m4.84619 17.7695-7e-8 1.615385-1.615385-7e-8 7e-8-1.615385zM17.7693 17.7695l-7e-8 1.615385-1.615385-7e-8 7e-8-1.615385z"/><path d="m19.3846 19.3848-7e-8 1.615385-1.615385-7e-8 7e-8-1.615385z"/><path d="m17.7693 19.3848-7e-8 1.615385-1.615385-7e-8 7e-8-1.615385zM16.1538 19.3848l-7e-8 1.615385-1.615385-7e-8 7e-8-1.615385z"/><path d="m14.5385 19.3848-7e-8 1.615385-1.615385-7e-8 7e-8-1.615385zM12.9231 19.3848l-7e-8 1.615385-1.615385-7e-8 7e-8-1.615385zM11.3076 19.3848l-7e-8 1.615385-1.615385-7e-8 7e-8-1.615385z"/><path d="m9.69238 19.3848-7e-8 1.615385-1.615385-7e-8 7e-8-1.615385zM8.0769 19.3848l-7e-8 1.615385-1.615385-7e-8 7e-8-1.615385z"/><path d="m6.46155 19.3848-7e-8 1.615385-1.615385-7e-8 7e-8-1.615385z"/><path d="m4.84619 19.3848-7e-8 1.615385-1.615385-7e-8 7e-8-1.615385zM3.23071 19.3848l-7e-8 1.615385-1.615385-7e-8 7e-8-1.615385zM21 21l-1.615385-1.4e-7 1.4e-7-1.615385 1.615385 1.4e-7z"/><path d="m21 19.3848-1.615385-1.4e-7 1.4e-7-1.615385 1.615385 1.4e-7z"/><path d="m21 17.7695-1.615385-1.4e-7 1.4e-7-1.615385 1.615385 1.4e-7z"/><path d="m21 16.1543-1.615385-1.4e-7 1.4e-7-1.615385 1.615385 1.4e-7zM21 14.5381l-1.615385-1.4e-7 1.4e-7-1.615385 1.615385 1.4e-7z"/><path d="m21 12.9229-1.615385-1.4e-7 1.4e-7-1.615385 1.615385 1.4e-7z"/><path d="m21 11.3076-1.615385-1.4e-7 1.4e-7-1.615385 1.615385 1.4e-7z"/><path d="m21 9.69238-1.615385-1.4e-7 1.4e-7-1.615385 1.615385 1.4e-7z"/><path d="m21 8.07715-1.615385-1.4e-7 1.4e-7-1.615385 1.615385 1.4e-7z"/><path d="m21 6.46191-1.615385-1.4e-7 1.4e-7-1.615385 1.615385 1.4e-7zM21 4.8457l-1.615385-1.4e-7 1.4e-7-1.615385 1.615385 1.4e-7z"/></g>
	</symbol>
</svg>